HIERARCHY
ROOT Hips
{
  OFFSET 267.745 86.9975 -272.335
  CHANNELS 6 Xposition Yposition Zposition Zrotation Xrotation Yrotation
  JOINT LeftUpLeg
  {
    OFFSET 8.64259 1.95398 -2.38835
    CHANNELS 3 Zrotation Xrotation Yrotation
    JOINT LeftLeg
    {
      OFFSET 43.7702 0 0
      CHANNELS 3 Zrotation Xrotation Yrotation
      JOINT LeftFoot
      {
        OFFSET 40.6238 0 0
        CHANNELS 3 Zrotation Xrotation Yrotation
        JOINT LeftToeBase
        {
          OFFSET 12.7242 0 0
          CHANNELS 3 Zrotation Xrotation Yrotation
          End Site
          {
            OFFSET 0 0 0
          }
        }
      }
    }
  }
  JOINT RightUpLeg
  {
    OFFSET -8.2249 1.95398 -2.59336
    CHANNELS 3 Zrotation Xrotation Yrotation
    JOINT RightLeg
    {
      OFFSET 43.5653 0 0
      CHANNELS 3 Zrotation Xrotation Yrotation
      JOINT RightFoot
      {
        OFFSET 40.6238 0 0
        CHANNELS 3 Zrotation Xrotation Yrotation
        JOINT RightToeBase
        {
          OFFSET 12.7242 0 0
          CHANNELS 3 Zrotation Xrotation Yrotation
          End Site
          {
            OFFSET 0 0 0
          }
        }
      }
    }
  }
  JOINT Spine
  {
    OFFSET 0.165834 0.87714 6.61349
    CHANNELS 3 Zrotation Xrotation Yrotation
    JOINT Spine1
    {
      OFFSET 7.38963 1.71661e-005 0
      CHANNELS 3 Zrotation Xrotation Yrotation
      JOINT Spine2
      {
        OFFSET 11.9445 1.14441e-005 0
        CHANNELS 3 Zrotation Xrotation Yrotation
        JOINT Spine3
        {
          OFFSET 14.7254 4.19617e-005 0
          CHANNELS 3 Zrotation Xrotation Yrotation
          JOINT Spine4
          {
            OFFSET 10.9679 0 0
            CHANNELS 3 Zrotation Xrotation Yrotation
            JOINT RightShoulder
            {
              OFFSET 2.46616 -1.6653 3.69651
              CHANNELS 3 Zrotation Xrotation Yrotation
              JOINT RightArm
              {
                OFFSET 13.0012 0 0
                CHANNELS 3 Zrotation Xrotation Yrotation
                JOINT RightForeArm
                {
                  OFFSET 28.7848 1.52588e-005 0
                  CHANNELS 3 Zrotation Xrotation Yrotation
                  JOINT RightHand
                  {
                    OFFSET 26.5688 1.52588e-005 0
                    CHANNELS 3 Zrotation Xrotation Yrotation
                    End Site
                    {
                      OFFSET 0 0 0
                    }
                  }
                }
              }
            }
            JOINT LeftShoulder
            {
              OFFSET 2.38034 -1.29275 -3.7523
              CHANNELS 3 Zrotation Xrotation Yrotation
              JOINT LeftArm
              {
                OFFSET 16.3182 6.10352e-005 0
                CHANNELS 3 Zrotation Xrotation Yrotation
                JOINT LeftForeArm
                {
                  OFFSET 27.0901 0 0
                  CHANNELS 3 Zrotation Xrotation Yrotation
                  JOINT LeftHand
                  {
                    OFFSET 24.5451 1.52588e-005 0
                    CHANNELS 3 Zrotation Xrotation Yrotation
                    End Site
                    {
                      OFFSET 0 0 0
                    }
                  }
                }
              }
            }
            JOINT Neck
            {
              OFFSET 5.0226 -0.0266342 0
              CHANNELS 3 Zrotation Xrotation Yrotation
              JOINT Head
              {
                OFFSET 6.69364 2.86102e-005 0
                CHANNELS 3 Zrotation Xrotation Yrotation
                End Site
                {
                  OFFSET 0 0 0
                }
              }
            }
          }
        }
      }
    }
  }
}
MOTION
Frames:	15
Frame Time:	0.0416667
-139.147 97.3337 -18.5992 148.799 -86.7 148.947 -175.976 -1.66601 89.1469 -8.78268 21.0427 2.45826 58.3169 3.27026 13.6888 37.3298 -0.88963 -1.62936 175.6 3.1531 88.7931 -18.9064 -2.02141 -0.575916 63.2371 4.97898 13.359 29.5554 -0.096071 -1.15863 0.0721414 7.01206 -90.1929 12.8497 0.0509317 -0.391655 1.17864 0.0336447 -0.393533 -21.3561 0.166288 -0.358244 -1.34345 0.166286 -0.358244 101.782 -54.2371 -82.7387 30.0361 -0.382576 -7.06482 0.489353 -14.6546 -13.2485 -15.5323 -1.0024 2.34867 -82.5675 -48.8037 89.5862 -35.6597 -2.28355 -19.8625 -1.05077 39.6326 -0.00299928 1.05389 -0.170108 -7.02978 2.13936 0.896449 -5.28181 -21.1998 0.894543 5.5147 
-139.187 97.319 -18.5757 149.551 -86.5571 149.76 -175.878 -1.8749 89.2759 -8.78907 21.2237 2.48596 58.7167 3.51843 13.3977 36.8635 -0.870492 -0.760558 175.643 3.09598 88.7671 -19.1905 0.621811 -0.786926 63.6197 5.94572 16.7873 26.6461 0.554271 -0.191285 0.0498967 7.01303 -90.2254 12.8476 -0.00879213 -0.449545 1.17654 -0.0285638 -0.448737 -21.358 0.126718 -0.4314 -1.34538 0.12672 -0.431414 101.515 -54.0088 -83.1366 29.9827 -0.369865 -6.65031 -0.0368944 -16.1958 -13.4172 -14.9392 -0.983708 2.51215 -82.4242 -49.5986 89.8744 -34.9279 -2.2454 -19.6954 -1.26929 40.0381 -0.00301704 2.26106 -0.239862 -8.08563 2.06596 1.02443 -4.45491 -21.449 0.977833 4.84473 
-139.164 97.2923 -18.5284 147.612 -86.6266 147.665 -175.983 -1.82714 89.088 -8.76749 21.2391 2.46162 58.9324 3.74669 13.6503 36.5866 -0.827361 -0.984444 175.483 3.35006 88.4742 -19.5452 1.82546 -0.769849 63.8643 6.50049 18.6114 25.2472 0.924382 -0.347357 0.0261116 6.98573 -90.2197 12.9021 -0.0534148 -0.432873 1.2311 -0.0724148 -0.430111 -21.3035 0.0791435 -0.428911 -1.29085 0.0791493 -0.428915 101.392 -53.863 -83.3219 30.0736 -0.457285 -6.50647 0.0806949 -16.3261 -13.1902 -15.5142 -1.00806 2.39882 -82.3503 -49.8795 90.01 -34.7224 -2.44313 -19.5697 -1.20672 40.4361 -0.00303483 2.15051 -0.262843 -8.73912 1.66665 1.14232 -4.391 -21.0885 1.05911 5.00635 
-139.119 97.2895 -18.5164 147.56 -86.8523 147.456 -176.16 -1.67307 88.8554 -8.73629 21.012 2.46487 58.8474 3.66347 13.6691 36.6564 -0.834699 -1.00538 175.401 3.6415 88.2649 -19.6739 1.50825 -0.730124 63.8851 6.45037 18.3971 25.3092 0.873328 -0.0594075 0.0454425 6.97484 -90.1995 12.9241 -0.00539608 -0.398264 1.25305 -0.0229194 -0.397651 -21.2817 0.11455 -0.381476 -1.269 0.114544 -0.381482 101.472 -53.9544 -83.2011 29.7863 -1.14889 -6.31993 0.177664 -15.7886 -13.6486 -15.4229 -1.0411 2.7015 -82.405 -49.857 89.9249 -34.6463 -2.25681 -19.6603 -1.26971 40.8354 -0.00305303 1.84531 -0.235329 -8.30205 2.2043 0.968005 -5.66654 -21.747 0.820164 6.68594 
-139.128 97.3078 -18.5424 149.789 -86.8032 149.727 -176.103 -1.74916 88.9026 -8.73545 20.809 2.45302 58.8453 3.6497 13.5286 36.6571 -0.838278 -0.931617 175.49 3.52914 88.3459 -19.6455 1.54345 -0.817925 63.9581 6.4043 18.4516 25.1943 0.903489 -0.070286 0.0558363 6.9873 -90.2138 12.8991 0.00841683 -0.428433 1.22807 -0.0104462 -0.428389 -21.3066 0.136787 -0.406095 -1.29392 0.136786 -0.406095 101.555 -53.8955 -83.0788 29.8089 -0.993076 -6.48794 0.154238 -16.0766 -13.2938 -15.2649 -0.971492 2.24608 -82.3528 -49.9173 90.0089 -34.5498 -2.04484 -19.7634 -1.3935 40.6996 -0.0030468 1.51289 -0.20343 -7.69761 2.27821 0.978215 -5.94961 -21.8233 0.80762 7.10991 
-139.157 97.2986 -18.566 148.365 -86.1068 148.89 -175.609 -2.17257 89.6577 -8.86694 21.8608 2.52713 58.8538 3.70937 13.6246 36.8586 -0.864282 -0.890203 175.615 2.61599 88.9797 -19.0981 2.10914 -0.766292 63.6392 6.41711 18.2342 25.187 0.862154 0.277284 0.0159259 7.04374 -90.2826 12.7856 -0.103513 -0.552395 1.1146 -0.127727 -0.547312 -21.4196 0.0672842 -0.557961 -1.40697 0.0672756 -0.557977 101.527 -53.9369 -83.1194 29.7959 -0.908358 -6.37985 0.0266235 -16.1351 -13.5627 -14.9025 -1.00251 2.68008 -82.3794 -50.0389 89.9787 -34.3443 -1.94006 -19.6171 -1.60044 37.8491 -0.00292529 1.39456 -0.158625 -6.44606 2.29047 1.01212 -5.36365 -21.8787 0.869801 6.31445 
-139.156 97.3053 -18.5658 148.894 -86.1636 149.371 -175.638 -2.16093 89.5878 -8.84889 21.7375 2.51683 58.8516 3.69706 13.5906 36.7507 -0.843608 -1.05816 175.619 2.64759 88.9496 -19.0649 1.99953 -0.780545 63.6457 6.36658 18.1579 25.306 0.84423 0.183008 0.0134016 7.04122 -90.28 12.7909 -0.107305 -0.546793 1.11983 -0.131271 -0.541542 -21.4144 0.0619816 -0.553764 -1.40177 0.0619768 -0.553771 101.507 -53.8838 -83.15 29.8804 -1.03879 -6.36763 0.10563 -15.8087 -13.6004 -15.0867 -0.979938 2.40329 -82.3299 -49.8897 90.042 -34.49 -1.80706 -19.644 -1.59869 38.2783 -0.00294251 1.46228 -0.164344 -6.51777 2.30088 1.08424 -5.58756 -22.0167 0.901242 6.74721 
-139.154 97.315 -18.5785 150.142 -86.1952 150.564 -175.626 -2.17335 89.5507 -8.82584 21.3691 2.47668 58.8928 3.70341 13.3669 36.6077 -0.809869 -1.39568 175.619 2.6967 88.8832 -19.1727 2.06503 -0.823866 63.7125 6.46701 18.5463 25.2384 0.91137 -0.225044 0.0218145 7.04272 -90.2847 12.7878 -0.0928548 -0.558007 1.11678 -0.117329 -0.553384 -21.4174 0.0791376 -0.560117 -1.40477 0.0791408 -0.56012 101.476 -53.7474 -83.1984 30.0258 -1.06754 -6.38878 0.134998 -15.6231 -13.637 -15.0216 -0.962447 2.29967 -82.3419 -50.2384 90.0522 -34.1134 -1.70435 -19.7522 -1.70743 38.3212 -0.00294425 1.56366 -0.169546 -6.64337 2.27396 1.15323 -5.3378 -21.9591 0.956109 6.59522 
-139.153 97.3166 -18.6002 150.404 -86.2254 150.936 -175.548 -2.13646 89.6617 -8.82799 21.558 2.4646 58.8812 3.69686 13.442 36.6991 -0.827359 -1.26796 175.712 2.70004 89.0452 -19.0979 1.86402 -0.837715 63.6144 6.35187 18.078 25.4076 0.849313 -0.0649727 0.023422 7.04054 -90.2965 12.7922 -0.0953446 -0.581368 1.1211 -0.120832 -0.576612 -21.413 0.0837853 -0.58314 -1.40038 0.0837891 -0.583139 101.414 -53.7421 -83.2904 30.0668 -1.23316 -6.34625 0.262639 -15.1262 -13.8461 -15.0631 -1.02109 2.73915 -82.393 -50.0568 89.9594 -34.3603 -1.75311 -19.7429 -1.61536 38.8071 -0.00296422 1.41025 -0.163945 -6.59318 2.01763 1.09761 -4.61303 -21.5465 0.982061 5.41145 
-139.099 97.3031 -18.6314 152.125 -86.561 152.346 -175.787 -1.93746 89.2675 -8.77038 20.9891 2.40138 58.8633 3.7035 13.4682 36.567 -0.799493 -1.5062 175.502 3.18827 88.6003 -19.4479 1.63808 -0.750608 63.8859 6.2807 18.2813 24.9293 0.955974 0.0420586 0.0395045 7.01236 -90.2724 12.8487 -0.0519868 -0.538408 1.17766 -0.0756403 -0.53561 -21.3566 0.11222 -0.529149 -1.34397 0.112223 -0.529149 101.376 -53.5844 -83.3491 30.164 -1.47792 -6.43042 0.628079 -14.4275 -13.6633 -16.1062 -1.04436 2.37647 -82.3772 -50.2063 89.9959 -34.4036 -1.94692 -19.8624 -1.41781 40.0961 -0.00301961 0.222241 -0.144916 -6.77216 2.1705 1.16382 -4.74654 -21.7559 0.991485 5.87937 
-139.105 97.3035 -18.6661 151.281 -86.4089 151.615 -175.755 -1.98142 89.3765 -8.82394 21.4175 2.448 58.6996 3.62738 13.7151 36.9849 -0.843398 -1.69104 175.573 3.04195 88.7424 -19.3699 1.7394 -0.780591 63.7639 6.37697 18.3571 25.0994 0.958791 -0.321821 0.025679 7.01712 -90.2833 12.8391 -0.0846494 -0.55625 1.16804 -0.109045 -0.55199 -21.3662 0.086432 -0.555969 -1.35352 0.0864365 -0.555975 101.382 -53.6476 -83.3386 30.187 -1.35096 -6.49857 0.549545 -14.6807 -13.6257 -15.8608 -1.04377 2.49407 -82.4029 -50.2353 89.9595 -34.2265 -1.76959 -19.7732 -1.59712 39.4219 -0.0029902 0.842387 -0.154954 -6.66035 2.34669 1.1187 -4.68503 -22.1873 0.948773 5.72148 
-139.109 97.3045 -18.6932 152.254 -86.4923 152.765 -175.664 -1.92026 89.5456 -8.83351 21.3386 2.47325 58.7703 3.66637 13.5954 36.81 -0.835685 -1.38664 175.648 3.00825 88.9391 -19.1759 1.71532 -0.757135 63.7002 6.27391 18.212 25.3556 0.860624 -0.0514794 0.0411211 7.01039 -90.3051 12.8525 -0.0644397 -0.602267 1.18145 -0.0908832 -0.598855 -21.3526 0.119539 -0.593796 -1.33996 0.11954 -0.593797 101.401 -53.6308 -83.3118 30.251 -1.14178 -6.4867 0.282143 -15.1588 -13.7793 -15.3275 -1.02337 2.61606 -82.4048 -50.1636 89.9506 -34.4052 -1.8571 -19.8106 -1.51957 39.4076 -0.00298958 0.768071 -0.157308 -6.80543 2.34047 1.00084 -5.03892 -22.1371 0.800998 6.2743 
-139.07 97.3011 -18.745 152.289 -86.6516 152.446 -175.91 -1.80558 89.1492 -8.76544 20.8626 2.43219 58.8776 3.68635 13.3759 36.443 -0.789195 -1.40312 175.505 3.43483 88.5206 -19.5925 1.40254 -0.754849 63.8251 6.30804 18.2229 25.0374 0.948117 -0.112222 0.0612221 6.99463 -90.269 12.8843 -0.00730725 -0.536872 1.21324 -0.0309341 -0.536039 -21.3211 0.154384 -0.514253 -1.30844 0.154375 -0.514259 101.56 -53.6814 -83.0738 30.1804 -1.21298 -6.53698 0.280389 -15.2536 -13.7948 -15.5819 -1.06414 2.79191 -82.5015 -50.2732 89.8133 -34.4799 -2.17866 -19.913 -1.27599 40.7225 -0.00304785 -0.518766 -0.127211 -6.63714 2.68906 1.10161 -3.73698 -22.6412 0.989319 4.35622 
-139.072 97.3007 -18.7655 153.077 -86.4069 153.467 -175.789 -1.98693 89.3802 -8.85503 21.3501 2.48998 58.773 3.7104 13.7129 36.7221 -0.83684 -1.12776 175.526 3.10404 88.733 -19.4601 1.62399 -0.717346 63.6902 6.35914 18.2879 25.218 0.892562 -0.0300472 0.0404338 7.0188 -90.2804 12.8358 -0.0539241 -0.554045 1.16473 -0.0782538 -0.551143 -21.3695 0.115076 -0.544643 -1.35686 0.115077 -0.544644 101.426 -53.9035 -83.2706 30.0483 -1.18594 -6.64898 0.431731 -15.1 -13.532 -15.8416 -1.05167 2.56671 -82.3177 -50.1042 90.0779 -34.3274 -1.88956 -19.8853 -1.50726 39.4029 -0.00298938 0.40476 -0.146844 -6.72941 2.44074 1.1353 -4.58397 -22.1964 1.01157 5.34192 
-139.053 97.3024 -18.8017 153.372 -86.4974 153.57 -175.873 -1.9169 89.192 -8.79881 21.1001 2.42653 58.7959 3.6682 13.5411 36.5586 -0.818116 -1.10633 175.479 3.28773 88.5157 -19.5811 1.5978 -0.754441 63.7359 6.43028 18.4846 25.1891 0.909423 -0.107681 0.0643914 6.99667 -90.25 12.8803 0.00809867 -0.500763 1.20924 -0.0139509 -0.500633 -21.3252 0.158224 -0.475174 -1.31256 0.158223 -0.475173 101.458 -54.0145 -83.2216 29.8744 -1.12016 -6.50997 0.286217 -15.3049 -13.6305 -15.0355 -1.03224 2.83932 -82.476 -49.925 89.8224 -34.4855 -2.18452 -19.9477 -1.2976 40.7018 -0.0030469 -0.501396 -0.130424 -6.8399 1.99385 1.00528 -5.4669 -21.9434 0.839779 6.44641 
